HIERARCHY
ROOT Hips
{
	OFFSET 0.000000 0.000000 0.000000
	CHANNELS 6 Xposition Yposition Zposition Yrotation Xrotation Zrotation 
	JOINT LeftHip
	{
		OFFSET 0.086059 -0.000429 0.000048
		CHANNELS 3 Yrotation Xrotation Zrotation
		JOINT LeftKnee
		{
			OFFSET 0.000000 -0.415789 0.000001
			CHANNELS 3 Yrotation Xrotation Zrotation
			JOINT LeftAnkle
			{
				OFFSET 0.000000 -0.468641 0.000230
				CHANNELS 3 Yrotation Xrotation Zrotation
				JOINT LeftToe
				{
					OFFSET 0.000000 -0.080523 0.174361
					CHANNELS 3 Yrotation Xrotation Zrotation
					End Site
					{
						OFFSET 0.000000 0.000000 0.000000
					}
				}
			}
		}
	}
	JOINT RightHip
	{
		OFFSET -0.086059 -0.000404 0.000045
		CHANNELS 3 Yrotation Xrotation Zrotation
		JOINT RightKnee
		{
			OFFSET 0.000000 -0.415789 0.000001
			CHANNELS 3 Yrotation Xrotation Zrotation
			JOINT RightAnkle
			{
				OFFSET 0.000000 -0.468641 0.000230
				CHANNELS 3 Yrotation Xrotation Zrotation
				JOINT RightToe
				{
					OFFSET 0.000000 -0.080523 0.174361
					CHANNELS 3 Yrotation Xrotation Zrotation
					End Site
					{
						OFFSET 0.000000 0.000000 0.000000
					}
				}
			}
		}
	}
	JOINT Chest
	{
		OFFSET 0.000000 0.105503 -0.011723
		CHANNELS 3 Yrotation Xrotation Zrotation
		JOINT Chest3
		{
			OFFSET 0.000000 0.218191 -0.010426
			CHANNELS 3 Yrotation Xrotation Zrotation
			JOINT Chest4
			{
				OFFSET 0.000000 0.104252 0.000170
				CHANNELS 3 Yrotation Xrotation Zrotation
				JOINT Neck
				{
					OFFSET 0.000000 0.146206 0.000000
					CHANNELS 3 Yrotation Xrotation Zrotation
					JOINT Head
					{
						OFFSET 0.000000 0.083446 0.000720
						CHANNELS 3 Yrotation Xrotation Zrotation
						End Site
						{
							OFFSET 0.000000 0.000000 0.000000
						}
					}
				}
				JOINT LeftCollar
				{
					OFFSET 0.031427 0.081855 0.000000
					CHANNELS 3 Yrotation Xrotation Zrotation
					JOINT LeftShoulder
					{
						OFFSET 0.143661 0.000000 0.000000
						CHANNELS 3 Yrotation Xrotation Zrotation
						JOINT LeftElbow
						{
							OFFSET 0.312275 0.000000 0.000000
							CHANNELS 3 Yrotation Xrotation Zrotation
							JOINT LeftWrist
							{
								OFFSET 0.224042 0.000000 -0.000056
								CHANNELS 3 Yrotation Xrotation Zrotation
								End Site
								{
									OFFSET 0.000000 0.000000 0.000000
								}
							}
						}
					}
				}
				JOINT RightCollar
				{
					OFFSET -0.031427 0.081855 0.000000
					CHANNELS 3 Yrotation Xrotation Zrotation
					JOINT RightShoulder
					{
						OFFSET -0.143661 0.000000 0.000000
						CHANNELS 3 Yrotation Xrotation Zrotation
						JOINT RightElbow
						{
							OFFSET -0.312275 0.000000 0.000000
							CHANNELS 3 Yrotation Xrotation Zrotation
							JOINT RightWrist
							{
								OFFSET -0.224042 0.000000 -0.000056
								CHANNELS 3 Yrotation Xrotation Zrotation
								End Site
								{
									OFFSET 0.000000 0.000000 0.000000
								}
							}
						}
					}
				}
			}
		}
	}
}
MOTION
Frames: 14
Frame Time: 0.016667
0.000000 0.000000 0.000000 -127.615754 -4.662633 -2.866557 9.708734 -12.084943 2.176370 6.288887 43.570350 6.787714 20.610848 12.309735 0.769625 5.249115 -36.561611 -15.791572 -7.427618 -7.702170 8.783055 -2.954928 21.520605 -1.126855 -23.005206 -6.793232 -2.381280 -0.016518 -3.829429 0.494097 -7.161087 5.731015 -3.753054 -6.009199 -0.704520 -3.286587 -2.362381 7.789008 -1.409469 -12.697275 8.224816 4.123785 -26.828831 -18.543772 14.061859 -4.440901 -4.935993 -11.295818 -32.055816 -13.012795 -67.056286 -98.045258 -21.793760 2.942622 8.488207 6.064440 16.163594 -2.700186 -4.108225 2.611436 -1.776227 -14.357047 72.023037 109.479560 -26.344696 2.025972 -3.549010 7.285568 -10.677067 
0.000000 0.000000 0.000000 -127.767198 -4.593785 -2.973467 9.735054 -13.335647 2.510598 5.705072 42.822046 6.724001 20.823360 10.961278 0.909825 4.527336 -33.345128 -15.037644 -7.282071 -7.346805 8.744824 -2.976087 21.612996 -1.171165 -22.954154 -7.190188 -2.203179 -0.023184 -3.817878 0.695588 -7.161479 5.710834 -3.790657 -6.006046 -0.722027 -3.320107 -2.362233 7.782806 -1.422253 -13.006665 8.556769 4.269980 -27.390759 -17.823208 14.367874 -4.372175 -4.953816 -11.367010 -32.233222 -13.333513 -66.802609 -98.162245 -22.131330 3.016039 8.189193 5.814807 16.737597 -2.622867 -4.085577 2.514228 -1.223613 -14.717035 72.068776 109.450337 -26.011449 1.583576 -3.233473 7.164634 -11.606496 
0.000000 0.000000 0.000000 -127.962428 -4.490077 -3.064057 9.615083 -14.448699 2.948272 5.198456 41.696862 6.472287 21.254435 9.377564 0.915816 3.756455 -29.657842 -14.139297 -6.930217 -7.033786 8.655469 -3.096953 21.660920 -1.195361 -22.947138 -7.581253 -1.970820 -0.028180 -3.779273 0.854133 -7.157732 5.668657 -3.830304 -5.999102 -0.759079 -3.355729 -2.360835 7.769278 -1.435960 -13.322119 8.882526 4.419059 -27.964317 -17.110276 14.679751 -4.302899 -4.994356 -11.400938 -32.256698 -13.676212 -66.738668 -98.280462 -22.202939 3.184776 8.005197 5.580766 17.471600 -2.570886 -4.111980 2.445269 -0.586052 -14.973305 72.021359 109.477689 -25.587835 0.932222 -2.954252 7.013723 -12.691503 
0.000000 0.000000 0.000000 -128.202402 -4.364735 -3.142050 9.407177 -15.434075 3.451409 4.724006 40.232112 6.113305 21.721763 7.603323 0.812009 2.979117 -25.594534 -13.090393 -6.431959 -6.736223 8.521328 -3.296464 21.649646 -1.204903 -22.943861 -7.947400 -1.705711 -0.031957 -3.724628 0.982814 -7.150056 5.611762 -3.868206 -5.988880 -0.809242 -3.390003 -2.358249 7.750800 -1.449217 -13.646098 9.206690 4.567230 -28.550511 -16.396316 14.988979 -4.225413 -5.048788 -11.414227 -32.141557 -14.047919 -66.802534 -98.386103 -22.039829 3.418528 7.883510 5.353209 18.338036 -2.532847 -4.171996 2.387728 0.053585 -15.166796 71.930898 109.522950 -25.093379 0.163701 -2.708069 6.838126 -13.870537 
0.000000 0.000000 0.000000 -128.492371 -4.272319 -3.207408 9.249151 -16.250253 3.932845 4.209858 38.609137 5.783414 21.806089 6.028478 0.585872 2.299621 -21.767758 -11.918327 -5.972527 -6.354245 8.334115 -3.464610 21.563421 -1.197323 -22.854602 -8.269674 -1.426723 -0.035068 -3.677865 1.092199 -7.143196 5.567200 -3.897636 -5.980144 -0.848538 -3.416623 -2.355942 7.736316 -1.459493 -13.950739 9.496451 4.692903 -29.096883 -15.754303 15.254097 -4.146791 -5.102990 -11.424710 -31.972713 -14.353227 -66.882134 -98.540569 -21.700532 3.828174 7.735380 5.117394 19.217842 -2.502218 -4.251762 2.329890 0.593870 -15.322679 71.821292 109.569670 -24.685500 -0.601281 -2.485903 6.630163 -14.987496 
0.000000 0.000000 0.000000 -128.836984 -4.233031 -3.260726 9.194003 -16.886367 4.353671 3.697871 36.860871 5.583370 21.330046 4.723188 0.246092 1.725135 -18.282174 -10.662672 -5.579044 -5.853573 8.089640 -3.597124 21.389230 -1.170469 -22.647386 -8.538124 -1.141188 -0.037655 -3.649087 1.182043 -7.138299 5.545951 -3.917162 -5.974009 -0.867221 -3.434188 -2.354236 7.729474 -1.466175 -14.232365 9.738050 4.789693 -29.599554 -15.213005 15.468023 -4.071382 -5.149058 -11.435320 -31.804651 -14.562157 -66.947614 -98.785573 -21.169185 4.502524 7.526440 4.840464 20.114952 -2.477450 -4.354250 2.268655 1.035698 -15.441953 71.681195 109.635086 -24.513193 -1.363195 -2.278381 6.356359 -16.023100 
0.000000 0.000000 0.000000 -129.231461 -4.226619 -3.300941 9.195350 -17.354788 4.746456 3.143989 34.955353 5.419139 20.499746 3.617057 -0.238269 1.233391 -15.002875 -9.326235 -5.226322 -5.268770 7.791485 -3.699523 21.140264 -1.125927 -22.352819 -8.764650 -0.843074 -0.039675 -3.628225 1.252611 -7.134090 5.537121 -3.928362 -5.969237 -0.874954 -3.444232 -2.352766 7.726660 -1.469927 -14.495690 9.943898 4.865123 -30.068004 -14.746888 15.643939 -3.994721 -5.194723 -11.443093 -31.582465 -14.704806 -67.029123 -99.069061 -20.457914 5.345292 7.300652 4.551611 21.028375 -2.459994 -4.476597 2.207691 1.378461 -15.522499 71.523374 109.710291 -24.427920 -2.126993 -2.090263 6.045649 -16.995341 
0.000000 0.000000 0.000000 -129.666858 -4.246883 -3.325150 9.244549 -17.651416 5.126210 2.342997 32.973482 5.133315 19.487433 2.884385 -0.944501 0.839946 -12.172019 -7.865545 -5.021284 -4.604224 7.441138 -3.677709 20.838404 -1.069488 -21.974791 -8.963961 -0.531723 -0.041438 -3.608924 1.315250 -7.131598 5.535061 -3.929141 -5.966958 -0.876783 -3.444961 -2.351939 7.725971 -1.470161 -14.725773 10.119668 4.919191 -30.472368 -14.349686 15.774521 -3.910550 -5.249362 -11.457014 -31.228587 -14.775483 -67.104057 -99.314338 -19.670116 6.195675 7.086323 4.323470 21.829807 -2.447657 -4.596300 2.145220 1.518043 -15.585060 71.407079 109.741769 -24.143162 -2.778882 -1.936632 5.781424 -17.803971 
0.000000 0.000000 0.000000 -130.135586 -4.289802 -3.335067 9.403020 -17.782156 5.490737 1.129514 30.954492 4.641260 18.249220 2.505806 -2.141990 0.521630 -9.874653 -5.993087 -5.037829 -3.851362 7.039277 -3.489513 20.481615 -1.007467 -21.493404 -9.143437 -0.207076 -0.042980 -3.589581 1.371547 -7.133477 5.531616 -3.914950 -5.970008 -0.879999 -3.432432 -2.352762 7.724643 -1.465551 -14.919226 10.274010 4.942627 -30.800926 -14.010305 15.839653 -3.819035 -5.303181 -11.489375 -30.740715 -14.747170 -67.142519 -99.533548 -18.852759 7.068550 6.855877 4.165196 22.474641 -2.429129 -4.690595 2.074507 1.382193 -15.642407 71.371483 109.713231 -23.507042 -3.274193 -1.800811 5.576616 -18.446910 
0.000000 0.000000 0.000000 -130.645286 -4.359064 -3.328316 9.614040 -17.742038 5.837855 -0.289940 28.842488 4.080523 16.861777 2.446288 -3.603447 0.282100 -7.960207 -3.975533 -5.204915 -3.023441 6.575973 -3.180279 20.068580 -0.936036 -20.928064 -9.297631 0.130473 -0.044275 -3.571801 1.419916 -7.137084 5.535244 -3.890433 -5.975539 -0.877045 -3.410664 -2.354220 7.725537 -1.457447 -15.079974 10.396992 4.945584 -31.068809 -13.743041 15.864210 -3.719858 -5.365954 -11.527716 -30.121032 -14.646285 -67.175162 -99.711481 -17.965402 7.954769 6.639600 4.058812 23.006601 -2.415490 -4.782459 2.002294 1.042933 -15.681167 71.377266 109.648074 -22.672840 -3.659194 -1.708124 5.413906 -18.926746 
0.000000 0.000000 0.000000 -131.209932 -4.459810 -3.295738 9.691750 -17.508317 6.182202 -1.561948 26.580039 3.632197 15.633418 2.899151 -4.661174 0.142485 -6.385459 -2.553929 -5.412411 -2.158300 6.036684 -2.787446 19.621351 -0.847517 -20.341943 -9.421548 0.481415 -0.045514 -3.554036 1.466939 -7.135528 5.565107 -3.867510 -5.976191 -0.850775 -3.390013 -2.353712 7.735157 -1.449354 -15.203531 10.467048 4.957706 -31.285332 -13.578363 15.908887 -3.605942 -5.476173 -11.543531 -29.298980 -14.546302 -67.270567 -99.744373 -16.984441 8.666406 6.548315 4.035844 23.425102 -2.438068 -4.917941 1.947482 0.612634 -15.683873 71.365145 109.549290 -21.812519 -3.954782 -1.733816 5.331875 -19.146464 
0.000000 0.000000 0.000000 -131.853474 -4.594442 -3.237524 9.560971 -17.021028 6.528146 -2.621156 23.974282 3.392653 14.608147 4.269253 -4.976901 0.089992 -5.332062 -2.097484 -5.647646 -1.263614 5.412990 -2.302174 19.133878 -0.733115 -19.731623 -9.505406 0.840030 -0.046683 -3.535834 1.512365 -7.122920 5.632193 -3.849507 -5.966436 -0.791399 -3.373318 -2.349182 7.757183 -1.442070 -15.281473 10.468409 4.999059 -31.447632 -13.540655 16.013854 -3.471274 -5.664645 -11.525758 -28.205191 -14.468346 -67.466304 -99.588765 -15.853397 9.139560 6.639305 4.118074 23.744617 -2.527600 -5.134148 1.921429 0.136993 -15.641742 71.318108 109.400150 -20.846816 -4.193775 -1.920924 5.390123 -19.001972 
0.000000 0.000000 0.000000 -132.552314 -4.759594 -3.152056 9.303790 -16.336259 6.857799 -3.543897 21.230369 3.297077 13.671518 6.215815 -4.968576 0.074990 -4.717501 -2.157242 -5.927966 -0.338389 4.706620 -1.736300 18.609030 -0.603847 -19.100020 -9.559854 1.212945 -0.047797 -3.517653 1.556447 -7.105315 5.725495 -3.834145 -5.951937 -0.708697 -3.358679 -2.342782 7.787956 -1.435159 -15.321286 10.417613 5.051609 -31.558525 -13.603944 16.143512 -3.321290 -5.899631 -11.484411 -26.909749 -14.385024 -67.726486 -99.310314 -14.628031 9.455848 6.847831 4.288042 23.943891 -2.652942 -5.393929 1.915877 -0.429107 -15.566361 71.250308 109.232499 -19.853249 -4.350948 -2.196407 5.540386 -18.585402 
0.000000 0.000000 0.000000 -133.249224 -4.951445 -3.027531 8.967555 -15.604821 7.154937 -4.219528 18.894297 3.222807 12.879367 7.844552 -5.017764 0.059771 -4.140725 -2.252389 -6.188511 0.595160 3.924387 -1.156958 18.083597 -0.481862 -18.520097 -9.609636 1.619268 -0.049077 -3.499320 1.606526 -7.093778 5.830933 -3.824958 -5.942175 -0.615102 -3.349357 -2.338249 7.822900 -1.430269 -15.342215 10.341675 5.087831 -31.635210 -13.722799 16.244273 -3.166115 -6.125536 -11.422925 -25.551234 -14.297078 -68.010397 -98.973208 -13.451580 9.644658 7.096774 4.521112 23.968534 -2.752625 -5.631700 1.919067 -1.109612 -15.472881 71.149477 109.108329 -19.240073 -4.353962 -2.471033 5.656326 -18.097327 
